<svg width="60" height="53" viewBox="0 0 60 53" fill="none" xmlns="http://www.w3.org/2000/svg">
<g clip-path="url(#clip0_27_710)">
<path d="M59.7095 24.4089L37.3548 2.75553C37.3064 2.70667 37.2483 2.65782 37.1901 2.60896H37.1707C36.2986 1.84679 33.9052 0.117257 30.7657 0C30.6785 0 30.5913 0 30.4944 0C30.4362 0 30.3684 0 30.3103 0H29.6901C29.632 0 29.5641 0 29.4963 0H29.4479C29.3703 0 29.3025 0 29.225 0C26.0855 0.117257 23.7017 1.84679 22.8103 2.58942H22.7909C22.7327 2.64805 22.6843 2.6969 22.6262 2.74576L0.290889 24.4089C-0.087018 24.7705 -0.096708 25.3763 0.261819 25.7574L3.06221 28.6986C3.23663 28.8842 3.46918 28.9819 3.72112 28.9917C3.97306 28.9917 4.21531 28.9038 4.38973 28.7279L9.24438 24.0278C9.24438 24.0278 9.25407 24.0376 9.26376 24.0474V52.0619C9.26376 52.5896 9.69011 53.0098 10.2037 53.0098H49.7676C50.2909 53.0098 50.7076 52.5798 50.7076 52.0619V24.0474C50.7076 24.0474 50.7172 24.0376 50.7269 24.0278L55.5816 28.7279C55.756 28.894 55.9886 28.9917 56.2405 28.9917C56.2405 28.9917 56.2502 28.9917 56.2599 28.9917C56.5118 28.9917 56.7444 28.8842 56.9188 28.6986L59.7192 25.7574C60.0777 25.3763 60.068 24.7802 59.6901 24.4089H59.7095ZM50.9983 21.6241L50.0583 20.7056L50.0002 20.6469L49.0215 19.6991L42.7327 13.6018L42.0545 12.9373L41.3762 12.2729L40.7948 11.7061L40.1165 11.0417L39.4382 10.3772L34.6514 5.74558C34.6514 5.74558 34.5932 5.69672 34.5641 5.6674L34.5254 5.63809C33.7211 5.02249 32.975 4.63164 32.3161 4.39712C31.9769 4.27987 31.6572 4.19192 31.3762 4.14307C31.0661 4.08444 30.7948 4.0649 30.5525 4.05513C30.5428 4.05513 30.5331 4.05513 30.5234 4.05513C30.5234 4.05513 30.5041 4.05513 30.4944 4.05513H30.4362H29.6223H29.5932H29.5545C29.5351 4.05513 29.506 4.05513 29.4866 4.05513C29.2541 4.05513 28.9827 4.08444 28.6727 4.14307C28.382 4.19192 28.0719 4.27987 27.7327 4.39712C27.0738 4.63164 26.3277 5.01272 25.5234 5.63809L25.4847 5.6674C25.4847 5.6674 25.4265 5.71626 25.3975 5.74558L20.6107 10.3772L19.9324 11.0417L19.2541 11.7061L18.6727 12.2729L17.9944 12.9373L17.3161 13.6018L11.0273 19.6991L10.0486 20.6469L9.9905 20.7056L9.05058 21.6241L3.81802 26.6857L2.32577 25.1125L23.9537 4.12353C23.9537 4.12353 23.9924 4.08444 24.0118 4.0649L24.0312 4.04535C24.4866 3.66427 25.8917 2.58942 27.7812 2.12039C28.2657 2.00313 28.7793 1.91519 29.3219 1.90542C29.3316 1.90542 29.351 1.90542 29.3607 1.90542C29.3897 1.90542 29.4188 1.90542 29.4576 1.90542H29.4963C29.4963 1.90542 29.5157 1.90542 29.5254 1.90542H29.5641C29.5641 1.90542 29.6029 1.90542 29.6223 1.90542C29.6417 1.90542 29.6514 1.90542 29.6707 1.90542H30.3296C30.3296 1.90542 30.3587 1.90542 30.3781 1.90542C30.3975 1.90542 30.4169 1.90542 30.4362 1.90542H30.475C30.475 1.90542 30.5041 1.90542 30.5138 1.90542H30.5525C30.5525 1.90542 30.6107 1.90542 30.6397 1.90542C30.6494 1.90542 30.6688 1.90542 30.6785 1.90542C31.2211 1.92496 31.7347 2.00313 32.2192 2.12039C34.099 2.58942 35.5138 3.66427 35.9692 4.04535L35.9886 4.0649C35.9886 4.0649 36.0273 4.10398 36.0467 4.11375L57.7231 25.1125L56.2308 26.6857L50.9983 21.6241ZM33.8374 22.4253H10.911L10.9789 22.3569L11.7541 21.6045H48.256L49.0312 22.3569L49.099 22.4253H33.8374ZM29.5932 24.3308H30.4072V51.075H29.5932V24.3308ZM20.5719 13.0546L27.2676 19.6991H26.1145L19.9905 13.6213L20.5719 13.0546ZM40.0099 13.6213L33.8859 19.6991H32.7327L39.4285 13.0546L40.0099 13.6213ZM36.5797 19.6991L41.3762 14.9405L46.289 19.6991H36.5797ZM32.2967 17.4615V6.4882C32.6262 6.65431 32.9847 6.87906 33.3626 7.1722L38.0719 11.7354L32.2967 17.4615ZM30.4072 19.3376L30.0389 19.6991H29.9711L29.6029 19.3376V5.98986H30.4169V19.3376H30.4072ZM27.7134 17.4615L21.9382 11.7354L26.6475 7.1722C27.0254 6.87906 27.3839 6.65431 27.7134 6.4882V17.4517V17.4615ZM23.4304 19.6991H13.7211L18.6339 14.9405L23.4304 19.6991ZM11.163 24.3308H27.7134V51.1044H11.163V24.3308ZM32.2967 24.3308H38.9731V51.1044H32.2967V24.3308ZM48.8374 51.1044H40.8529V24.3308H48.8374V51.1044Z" fill="#278162"/>
<path d="M25.1551 31.0242H14.3606C13.8373 31.0242 13.4207 31.4541 13.4207 31.972V41.4893C13.4207 42.017 13.847 42.4371 14.3606 42.4371H25.1551C25.6784 42.4371 26.0951 42.0072 26.0951 41.4893V31.972C26.0951 31.4443 25.6687 31.0242 25.1551 31.0242ZM24.2152 40.5415H15.3102V32.9198H24.2152V40.5415Z" fill="#278162"/>
</g>
<defs>
<clipPath id="clip0_27_710">
<rect width="60" height="53" fill="white"/>
</clipPath>
</defs>
</svg>
