<svg width="60" height="55" viewBox="0 0 60 55" fill="none" xmlns="http://www.w3.org/2000/svg">
<g clip-path="url(#clip0_27_599)">
<path d="M59.9905 18.4568C60.0192 18.2478 59.9905 18.0389 59.8756 17.8584C59.8756 17.8489 59.8564 17.8299 59.8469 17.8204C59.2724 16.101 57.0608 14.4577 53.9876 13.6218C52.3313 13.1753 49.2772 12.5864 47.5252 13.6693C47.1135 13.9257 46.8071 14.2582 46.5965 14.6477C46.539 14.7332 46.5008 14.8187 46.472 14.9231L46.4433 15.0181L46.4146 15.1131L40.45 36.2867C38.0757 34.2349 35.1556 32.7435 31.8143 31.8506C33.1547 30.3022 34.1312 28.5164 34.6386 26.6451C36.8023 26.6451 38.5639 24.8972 38.5639 22.7504C38.5639 21.487 37.9512 20.3566 37.0034 19.6442C37.5683 19.6442 38.0469 19.6442 38.4586 19.6442H39.2437L39.3682 18.8653C39.6362 17.2124 38.6214 16.4905 37.4534 15.9111C37.4151 12.3964 37.0704 8.8152 35.2514 6.03195C33.7291 3.70466 31.3548 2.2418 28.0709 1.60535V0H19.4926V1.59585C16.1992 2.2323 13.8344 3.70466 12.3121 6.02245C10.4835 8.8057 10.1389 12.3774 10.1101 15.9016C8.94211 16.481 7.92727 17.1934 8.19534 18.8558L8.31981 19.6252H9.10487C9.51655 19.6252 9.98567 19.6347 10.5601 19.6347C9.61229 20.3471 8.99956 21.4775 8.99956 22.7409C8.99956 24.8402 10.6941 26.5596 12.7908 26.6356C13.3078 28.5164 14.2844 30.3117 15.6439 31.8696C12.293 32.7815 9.37294 34.3014 6.98903 36.3817C4.74872 38.348 3.01583 40.7893 1.83824 43.6485C0.603195 46.6598 -0.0286865 50.1554 -0.0286865 54.0216C-0.0286865 54.5345 0.392568 54.943 0.899987 54.943H22.0297C22.0967 54.962 22.1638 54.9715 22.2403 54.9715H25.3136C25.3902 54.9715 25.4572 54.962 25.5242 54.943H44.0594L49.0953 54.981C49.5165 54.981 49.8804 54.7055 49.9953 54.2971L59.4543 20.2902C59.6458 19.9957 59.7894 19.6632 59.8851 19.3117C59.9617 19.0268 59.9905 18.7323 59.9617 18.4378L59.9905 18.4568ZM47.6018 53.1382H46.6731L44.1073 53.1097H43.0733L44.8349 46.8592L45.3136 45.1589L45.7444 43.6485L51.9005 21.8955C53.9876 22.3705 55.73 22.4085 57.08 22.019L48.4251 53.1477H47.6018V53.1382ZM1.87653 53.1097C2.11588 44.9309 5.52421 38.8705 11.4505 35.5648L12.2834 42.1572C12.3313 42.4991 12.5611 42.7841 12.877 42.9076L14.6673 43.5725L13.7674 44.4085C13.4323 44.7124 13.3749 45.2159 13.6238 45.5959L18.5927 53.1192H1.87653V53.1097ZM13.5472 24.7832C13.2791 24.7832 12.9632 24.7832 12.944 24.7832C11.8143 24.7832 10.8856 23.8713 10.8856 22.7409C10.8856 22.0475 11.2303 21.4396 11.7569 21.0691C12.0728 20.8506 12.4462 20.7176 12.8579 20.6986L13.0015 20.8601L15.3471 23.5579V25.4387H23.1307V23.2824H24.4902V25.4387H32.2738V23.5579L34.6195 20.8601L34.7535 20.6986C35.1652 20.7176 35.5386 20.8506 35.8545 21.0691C36.3811 21.4396 36.7257 22.0475 36.7257 22.7409C36.7257 23.8618 35.8066 24.7832 34.6673 24.7832C34.629 24.7832 34.0355 24.7832 33.9876 24.7832C33.9876 24.7832 33.978 24.7832 33.9684 24.7832H33.9206C33.4802 24.7832 33.0972 25.0967 33.011 25.5242C32.5706 27.652 31.4218 29.7038 29.7272 31.3661C29.5357 31.5561 29.3442 31.7366 29.1432 31.9076C29.0474 31.9931 28.9517 32.0691 28.8559 32.1546C28.5113 32.4395 28.1571 32.696 27.7932 32.9335C27.3528 33.2185 26.9029 33.475 26.4529 33.6839C25.4859 34.1304 24.5477 34.3869 23.7243 34.3869C22.9009 34.3869 22.0201 34.1494 21.0915 33.7219C20.6223 33.513 20.1532 33.247 19.6841 32.943C19.3203 32.7055 18.966 32.4491 18.6214 32.1641C18.5161 32.0786 18.4108 31.9931 18.3054 31.8981C18.114 31.7271 17.9225 31.5561 17.7406 31.3756C16.046 29.7038 14.878 27.652 14.4376 25.5147C14.3514 25.0872 13.9684 24.7737 13.528 24.7737L13.5472 24.7832ZM11.1058 17.4879C11.1824 17.4499 11.2686 17.4119 11.3643 17.3644C11.4122 17.3454 11.4505 17.3264 11.4984 17.2979C11.7473 17.1839 12.0058 17.0794 12.2643 16.975C12.3026 16.956 12.3504 16.9465 12.3887 16.9275C12.6951 16.8135 13.0206 16.709 13.3366 16.614C13.4132 16.595 13.4897 16.5665 13.5663 16.5475C13.8057 16.481 14.0546 16.4145 14.3035 16.3575C14.8205 16.234 15.3567 16.1295 15.8832 16.0345C16.3715 15.949 16.8502 15.8731 17.3193 15.7971C17.5491 15.7591 17.7789 15.7306 18.0087 15.7021C18.2097 15.6736 18.4012 15.6451 18.6022 15.6261C18.6214 15.6261 18.6405 15.6261 18.6597 15.6261C20.45 15.3981 22.1446 15.2841 23.82 15.2841C25.4955 15.2841 27.1997 15.3981 28.9804 15.6261C28.9996 15.6261 29.0187 15.6261 29.0283 15.6261C29.2198 15.6546 29.4208 15.6736 29.6219 15.7021C29.8516 15.7306 30.0814 15.7686 30.3112 15.7971C30.7803 15.8636 31.2686 15.9395 31.7473 16.0345C32.2547 16.1295 32.7621 16.2245 33.2695 16.348C33.5376 16.4145 33.7961 16.481 34.0546 16.5475C34.112 16.5665 34.1791 16.5855 34.2365 16.595C34.562 16.69 34.878 16.7945 35.1843 16.9085C35.2418 16.9275 35.3088 16.9465 35.3662 16.975C35.6247 17.0699 35.8832 17.1839 36.1322 17.2979C36.18 17.3169 36.2279 17.3359 36.2662 17.3644C36.3524 17.4024 36.4385 17.4499 36.5151 17.4879C36.7545 17.6019 36.9459 17.6969 37.0896 17.7824C36.8215 17.7824 36.5247 17.7824 36.2087 17.7824C35.9694 17.7824 35.7205 17.7824 35.4524 17.7824C35.4045 17.7824 35.3471 17.7824 35.2992 17.7824H35.2705C34.9737 17.7824 34.6769 17.7824 34.361 17.7824C34.0833 17.7824 33.7961 17.7824 33.5089 17.7824C33.4802 17.7824 33.4419 17.7824 33.4132 17.7824C33.0015 17.7824 32.5802 17.7824 32.1398 17.7824C31.709 17.7824 31.2686 17.7824 30.8282 17.7824C30.7516 17.7824 30.675 17.7824 30.5984 17.7824C28.5113 17.7824 26.2423 17.7824 23.9732 17.7824H23.9349C21.6468 17.7824 19.349 17.7824 17.2332 17.7824C17.0896 17.7824 16.9555 17.7824 16.8215 17.7824C16.3715 17.7824 15.9311 17.7824 15.5099 17.7824C15.0599 17.7824 14.6195 17.7824 14.1982 17.7824C14.1791 17.7824 14.1695 17.7824 14.1503 17.7824C13.844 17.7824 13.5472 17.7824 13.26 17.7824C12.9632 17.7824 12.676 17.7824 12.3887 17.7824C12.36 17.7824 12.3409 17.7824 12.3121 17.7824C12.3026 17.7824 12.2834 17.7824 12.2739 17.7824C11.9771 17.7824 11.709 17.7824 11.4505 17.7824C11.1345 17.7824 10.8378 17.7824 10.5697 17.7824C10.7133 17.6969 10.9048 17.6019 11.1441 17.4879H11.1058ZM30.4069 21.8005V23.5959H26.3571V21.8005H30.4069ZM24.4902 19.9482V21.4396H23.1307V19.9482H15.3471V20.7271L14.5716 19.8342L14.3993 19.6347C14.5429 19.6347 14.6769 19.6347 14.8205 19.6347C15.5864 19.6347 16.3907 19.6347 17.2236 19.6347C19.3394 19.6347 21.6372 19.6347 23.9254 19.6347H23.9637C26.2327 19.6347 28.5017 19.6347 30.5888 19.6347C31.3548 19.6347 32.0919 19.6347 32.81 19.6347C32.9536 19.6347 33.0876 19.6347 33.2312 19.6347L33.0589 19.8342L32.2834 20.7271V19.9482H24.4998H24.4902ZM21.2638 21.8005V23.5959H17.214V21.8005H21.2638ZM35.6056 15.1131C35.5577 15.0941 35.5098 15.0846 35.462 15.0656C35.2609 14.9991 35.0503 14.9326 34.8397 14.8661C34.4854 14.7617 34.1312 14.6667 33.777 14.5812C33.4036 14.4957 33.0302 14.4102 32.6664 14.3437C31.776 14.1727 30.8952 14.0302 30.0431 13.9162C29.9857 13.9162 29.9378 13.8972 29.8804 13.8972C29.5453 13.8497 29.2102 13.8117 28.8751 13.7642C28.6166 13.7358 28.3485 13.7073 28.09 13.6788V3.49568C31.1824 4.17962 33.0206 5.67098 34.1025 7.6563C35.2322 9.72712 35.5386 12.3299 35.6056 15.1131ZM21.3883 1.85233H26.2327V13.2513H21.3883V1.85233ZM19.5213 3.49568V13.6693C19.2628 13.6978 19.0043 13.7263 18.7458 13.7547C18.4108 13.7927 18.0757 13.8402 17.7406 13.8877C17.6831 13.8877 17.6353 13.9067 17.5778 13.9067C16.7162 14.0302 15.8066 14.1727 14.8971 14.3532C14.5237 14.4292 14.1503 14.5052 13.7865 14.6002C13.4323 14.6857 13.0685 14.7807 12.7238 14.8851C12.5323 14.9421 12.3504 14.9991 12.159 15.0656C12.1111 15.0846 12.0632 15.0941 12.0058 15.1131C12.0728 12.3394 12.3792 9.73661 13.4993 7.6753C14.5812 5.68048 16.4098 4.18912 19.5118 3.49568H19.5213ZM23.7339 36.2392C24.3562 36.2392 25.0168 36.1347 25.6965 35.9447L26.2135 36.8377L25.2274 38.215L25.1317 38.348H22.4701L22.3744 38.215L21.3883 36.8377L21.8861 35.9827C22.5276 36.1537 23.1499 36.2487 23.7339 36.2487V36.2392ZM23.8105 52.4352C23.0637 50.5164 22.384 48.7021 21.7616 47.0017L22.9009 40.2003H24.7296L25.8689 47.0017C25.2466 48.7021 24.5572 50.5164 23.82 52.4352H23.8105ZM27.1518 43.4111L26.5199 39.6209L28.09 37.4171C28.3007 37.1226 28.3198 36.7332 28.1379 36.4197L27.4677 35.2608C28.4443 34.7858 29.4112 34.1399 30.3112 33.3705C30.3591 33.38 30.4165 33.3895 30.4644 33.4085C30.0048 34.9188 28.9038 38.4715 27.1614 43.4111H27.1518ZM17.2044 33.3895C18.1331 34.1779 19.1288 34.8333 20.1245 35.3083L19.483 36.4197C19.3011 36.7332 19.3203 37.1226 19.5309 37.4171L21.101 39.6209L20.4692 43.4111C18.7267 38.462 17.6161 34.9093 17.1661 33.399C17.1853 33.399 17.1949 33.399 17.214 33.3895H17.2044ZM17.0513 43.905C17.2906 43.6865 17.3959 43.3636 17.3289 43.0501C17.2619 42.7366 17.0417 42.4801 16.7449 42.3661L14.0738 41.3687L13.2312 34.7193C14.2844 34.2729 14.9546 34.0449 15.3662 33.9214C15.9215 35.7452 17.4151 40.5518 19.8373 47.1822C20.0479 47.7522 20.2681 48.3411 20.4883 48.949C20.967 50.2409 21.4744 51.5898 22.0201 52.9862H21.7808L20.7468 52.9387H20.7277L15.6343 45.2254L17.0608 43.905H17.0513ZM26.8646 52.9292L25.8306 52.9672H25.5912C26.1369 51.5708 26.6444 50.2314 27.1231 48.9395C27.3433 48.3411 27.5635 47.7522 27.7741 47.1727C30.1963 40.5423 31.6898 35.7358 32.2451 33.9119C32.6568 34.0354 33.3366 34.2729 34.3801 34.7098L33.5376 41.3592L30.8665 42.3566C30.5601 42.4706 30.3399 42.7271 30.2825 43.0406C30.2155 43.3541 30.3208 43.677 30.5601 43.8955L31.9866 45.2159L26.8933 52.9292H26.8741H26.8646ZM33.978 45.5864C34.2269 45.2064 34.1695 44.7124 33.8344 44.399L32.9345 43.563L34.7248 42.8981C35.0503 42.7746 35.2801 42.4896 35.3184 42.1477L36.1513 35.5553C37.5395 36.3247 38.7841 37.2556 39.8851 38.3195L35.7205 53.1002H28.99L33.9589 45.5769L33.978 45.5864ZM41.9914 37.7496L47.573 17.9154C48.157 18.3713 48.923 18.7608 49.7751 19.0838C51.326 19.6727 53.1834 20.0337 54.7822 20.1477C54.8492 20.1477 54.9163 20.1477 54.9929 20.1477C55.5577 20.0622 56.8694 19.7582 57.0991 18.7513C57.0991 18.7228 57.1183 18.6848 57.1183 18.6563C57.1661 18.3143 57.0896 18.0104 56.9268 17.7444C56.5343 17.0794 55.6535 16.6615 55.1939 16.4335C55.012 16.3385 54.8301 16.2435 54.6482 16.1675C53.6812 15.7306 52.7143 15.5311 51.9388 15.4361C51.0292 15.3221 50.3878 15.3696 50.3399 15.3791L50.3878 15.9775L50.4165 16.3005L50.4644 16.956L50.4835 17.2219C50.4835 17.2219 50.9431 17.1934 51.5941 17.2599C52.2643 17.3264 53.1451 17.5069 54.0067 17.9154C54.112 17.9629 54.2174 18.0199 54.3131 18.0674C54.3323 18.0674 54.3418 18.0864 54.361 18.0864C54.5142 18.1623 54.6482 18.2288 54.7535 18.2858C53.0781 18.1434 51.4218 17.7634 50.1867 17.2599C49.6027 17.0225 49.124 16.766 48.7698 16.4905C48.607 16.367 48.473 16.234 48.3677 16.101C48.1666 15.8446 48.2049 15.6926 48.2145 15.6261C48.2241 15.5596 48.2528 15.4836 48.3102 15.4076C48.3581 15.3506 48.4155 15.2936 48.5113 15.2366C48.7889 15.0656 49.2964 14.9326 50.0144 14.9136C50.8665 14.8851 52.0345 15.0086 53.4993 15.4076C54.6673 15.7211 55.6247 16.158 56.3715 16.6235C57.0896 17.0794 57.597 17.5639 57.8746 17.9914C58.0852 18.3143 58.1714 18.6183 58.1044 18.8463C58.0374 19.0933 57.9225 19.3117 57.7597 19.5112C57.5012 19.8152 57.1374 20.0432 56.6587 20.2047C55.8354 20.4706 54.2652 20.6416 51.4792 19.8912C50.9814 19.7582 50.4739 20.0432 50.3399 20.5371L45.8497 36.4007L44.4998 41.1598L44.136 42.4326L43.7339 43.848L41.1202 53.0907L37.6736 53.0622L41.3595 39.9534L41.6851 38.8135L41.9818 37.7591L41.9914 37.7496Z" fill="#278162"/>
</g>
<defs>
<clipPath id="clip0_27_599">
<rect width="60" height="55" fill="white"/>
</clipPath>
</defs>
</svg>
