<svg width="60" height="53" viewBox="0 0 60 53" fill="none" xmlns="http://www.w3.org/2000/svg">
<g clip-path="url(#clip0_28_1351)">
<path d="M44.5106 0.473622C44.1311 0.33253 43.7017 0.443388 43.4321 0.755805L0.239674 51.3774C-0.00999262 51.6697 -0.0699127 52.0829 0.0898742 52.4255C0.249661 52.7782 0.589208 53 0.978689 53H40.6458C43.1325 53 45.1498 50.9642 45.1498 48.4548V1.39072C45.1498 0.97752 44.9001 0.614713 44.5106 0.473622ZM40.6458 51.0348H3.09587L43.2024 4.03114V10.0779H40.1864V12.0431H43.2024V14.351H40.1864V16.3162H43.2024V18.624H40.1864V20.5892H43.2024V22.8971H40.1864V24.8623H43.2024V27.1701H40.1864V29.1353H43.2024V31.4533H40.1864V33.4185H43.2024V35.7263H40.1864V37.6915H43.2024V39.9994H40.1864V41.9646H43.2024V44.2724H40.1864V46.2376H43.2024V48.4246C43.2024 49.8456 42.0539 51.0045 40.6458 51.0045V51.0348Z" fill="#278162"/>
<path d="M37.1406 19.2187C36.7511 19.0776 36.3216 19.1986 36.062 19.511L15.5194 44.4338C15.2797 44.726 15.2298 45.1292 15.3896 45.4819C15.5493 45.8245 15.8889 46.0462 16.2684 46.0462H36.811C37.0707 46.0462 37.3203 45.9455 37.5001 45.754C37.6798 45.5726 37.7897 45.3206 37.7897 45.0586V20.1358C37.7897 19.7226 37.53 19.3497 37.1505 19.2086L37.1406 19.2187ZM35.8423 44.081H18.3456L35.8423 22.8569V44.081Z" fill="#278162"/>
<path d="M59.0213 0H49.0146C48.4753 0 48.0459 0.44343 48.0459 0.977562V31.4231C48.0459 31.796 48.2556 32.1285 48.5652 32.2898L53.199 42.4585C53.3588 42.8112 53.6984 43.0329 54.0878 43.0329C54.4673 43.0329 54.8169 42.8011 54.9667 42.4484L59.4607 32.2999C59.7803 32.1386 59.99 31.806 59.99 31.4231V0.977562C59.99 0.433352 59.5506 0 59.0213 0ZM56.6644 1.9652H58.0526V30.4455H56.6644V1.9652ZM54.717 30.4455H53.3289V1.9652H54.717V30.4455ZM51.3815 30.4455H49.9933V1.9652H51.3815V30.4455ZM55.8755 35.5853H52.2103L50.7822 32.4611L57.2736 32.441L55.8755 35.5853ZM53.0992 37.5606H54.9966L54.0579 39.6769L53.0992 37.5606Z" fill="#278162"/>
</g>
<defs>
<clipPath id="clip0_28_1351">
<rect width="60" height="53" fill="white"/>
</clipPath>
</defs>
</svg>
