<svg width="60" height="58" viewBox="0 0 60 58" fill="none" xmlns="http://www.w3.org/2000/svg">
<g clip-path="url(#clip0_40_1814)">
<path d="M59.9543 41.1827V2.78619C59.9543 1.24741 58.7009 0 57.1546 0H49.9451V5.58148H54.355V20.8691H49.9451V22.6446H54.355V38.697H38.6094V34.0807H36.8253V38.697H21.0796V22.6446H25.6176V20.8691H21.0796V5.58148H36.8253V20.8691H35.4255V22.6446H36.8253V27.5887H38.6094V22.6446H40.1373V20.8691H38.6094V5.58148H43.0924V0H18.2708C18.0421 0 17.8225 0.0273155 17.6121 0.0819466H5.13269V1.85746H15.6267C15.5261 2.14882 15.4621 2.4675 15.4621 2.79529V41.4923C15.4621 41.8201 15.517 42.1388 15.6267 42.4301H9.89024L13.7969 34.2355H10.6954V10.4254H13.7969L9.81704 2.05777L5.81888 10.4254H8.92043V34.2264H5.81888L9.72555 42.421H5.13269V44.1965H15.8006V55.9513H17.5847V44.1965H17.6121C17.8225 44.2512 18.0421 44.2785 18.2708 44.2785H57.1546C57.5298 44.2785 57.8957 44.2057 58.2251 44.0691V49.5686L49.9909 45.6716V48.7582H26.2031V45.6716L17.7951 49.6506L26.2031 53.6295V50.5429H49.9909V53.6295L58.2251 49.7325V55.9604H60.0092V41.1918H59.9634L59.9543 41.1827ZM8.92043 36.0019H10.9881L10.7045 36.5937L10.1007 37.8593L9.8079 38.4603L9.52427 37.8593L8.92043 36.5937L8.63681 36.0019H8.92043ZM9.81704 6.19152L10.9881 8.64992H8.64596L9.81704 6.19152ZM51.7658 48.476L54.2361 49.6414L51.7658 50.8069V48.476ZM24.4191 50.5338V50.816L23.8244 50.5338L22.1684 49.7507L21.9396 49.6414L22.1684 49.5322L23.8244 48.7491L24.4191 48.4669V50.5247V50.5338ZM58.1702 41.4832C58.1702 42.0386 57.7127 42.4939 57.1546 42.4939H18.2708C18.1336 42.4939 17.9964 42.4666 17.8774 42.4119C17.5115 42.2571 17.2553 41.8929 17.2553 41.4741V2.78619C17.2553 2.36735 17.5115 2.00314 17.8774 1.84835C17.9964 1.79372 18.1336 1.76641 18.2708 1.76641H41.3084V3.79686H19.2955V40.4634H56.1391V3.80597H51.7292V1.77551H57.1546C57.7127 1.77551 58.1702 2.23077 58.1702 2.78619V41.4832Z" fill="#278162"/>
<path d="M32.8728 20.869H28.161V22.6445H32.8728V20.869Z" fill="#278162"/>
<path d="M47.3925 20.869H42.6807V22.6445H47.3925V20.869Z" fill="#278162"/>
<path d="M6.86185 23.6553C3.96157 23.5551 4.32754 21.4245 4.32754 21.4245L5.59012 20.1134C5.68161 20.2591 5.81885 20.3774 5.98353 20.4685C6.15736 20.5595 6.3312 20.605 6.50503 20.605C6.76121 20.605 6.98994 20.5231 7.18207 20.3592C7.38335 20.1862 7.48399 19.9677 7.48399 19.7127C7.48399 19.4578 7.38335 19.2393 7.18207 19.0663C6.98994 18.9024 6.76121 18.8204 6.49588 18.8204C6.23056 18.8204 6.01098 18.8933 5.8097 19.039C5.72736 19.1027 5.54437 19.2666 5.27905 19.5488L4.16285 20.7052L3.97987 19.8311C3.87008 19.2939 3.48582 19.0299 2.84538 19.0299C2.59835 19.0116 1.6011 18.8933 1.48216 19.1846C1.36322 19.4942 2.1226 19.731 2.27813 19.8311C2.63495 20.0678 2.71729 20.3228 2.83623 20.7598C2.88198 20.9328 3.129 21.7796 3.02836 21.8889L1.89387 23.0817C1.71089 22.7357 1.40897 22.5718 0.997255 22.5718C0.722781 22.5718 0.494053 22.6628 0.292772 22.8358C0.10064 23.0088 0 23.2182 0 23.4641C0 23.7099 0.10064 23.9375 0.301921 24.1105C0.494053 24.2744 0.722781 24.3564 0.988106 24.3564C1.36322 24.3564 1.70174 24.1925 2.03111 23.8556L3.22049 22.6173C3.37603 23.1363 3.42177 23.7372 3.91583 24.0468C4.39158 24.3473 5.03202 24.2744 5.56267 24.2562C5.78225 24.2471 7.3742 24.1834 6.8527 23.6644L6.86185 23.6553Z" fill="#278162"/>
<path d="M40.9332 52.719C40.741 52.5551 40.5123 52.4731 40.247 52.4731C39.9817 52.4731 39.7621 52.546 39.5608 52.6917C39.4785 52.7554 39.2955 52.9193 39.0301 53.2016L37.914 54.3579L37.731 53.4838C37.6212 52.9466 37.2369 52.6826 36.5965 52.6826C36.3495 52.6644 35.3522 52.546 35.2333 52.8373C35.1143 53.1469 35.8737 53.3837 36.0292 53.4838C36.386 53.7206 36.4684 53.9755 36.5873 54.4125C36.6331 54.5855 36.8801 55.4323 36.7795 55.5416L35.645 56.7344C35.462 56.3884 35.1601 56.2245 34.7484 56.2245C34.4739 56.2245 34.2452 56.3155 34.0439 56.4885C33.8517 56.6615 33.7511 56.8709 33.7511 57.1168C33.7511 57.3626 33.8517 57.5903 34.053 57.7633C34.2452 57.9271 34.4739 58.0091 34.7392 58.0091C35.1143 58.0091 35.4528 57.8452 35.7822 57.5083L36.9716 56.27C37.1271 56.789 37.1729 57.3899 37.6669 57.6995C38.1427 58 38.7831 57.9271 39.3138 57.9089C39.5334 57.8998 41.1253 57.8361 40.6038 57.3171C37.7035 57.2169 38.0695 55.0863 38.0695 55.0863L39.3321 53.7752C39.4236 53.9209 39.5608 54.0392 39.7255 54.1303C39.8993 54.2213 40.0732 54.2669 40.247 54.2669C40.5032 54.2669 40.7319 54.1849 40.924 54.021C41.1253 53.848 41.2259 53.6295 41.2259 53.3746C41.2259 53.1196 41.1253 52.9011 40.924 52.7281L40.9332 52.719Z" fill="#278162"/>
</g>
<defs>
<clipPath id="clip0_40_1814">
<rect width="60" height="58" fill="white"/>
</clipPath>
</defs>
</svg>
