<?xml version="1.0" encoding="UTF-8"?>
<svg id="Capa_2" data-name="Capa 2" xmlns="http://www.w3.org/2000/svg" viewBox="0 0 178.24 150.42">
  <defs>
    <style>
      .cls-1 {
        fill: #fff;
      }

      .cls-2 {
        fill: #298162;
      }
    </style>
  </defs>
  <g id="Capa_2-2" data-name="Capa 2">
    <g id="Capa_1-2" data-name="Capa 1-2">
      <path class="cls-1" d="M0,77.56V.01C3.39.01,6.18.32,9.58,2.1c4.36,2.28,6.5,5.11,6.5,5.11,0,0-.2,32.63-.2,56.22,4.16-2.23,55.44-32.95,55.44-32.95l-.21-10.23-30.65,17.22-14.83-10.12L74.23.01s4.45-.34,9.19,2.51c4.74,2.85,5.7,4.68,5.7,4.68v27.48s.38,4.68-.77,6.45c-1.49,2.3-3.17,2.98-3.17,2.98L16.08,85.93s-5.46-.31-10.41-3.4c-5.93-3.71-4.82-5.18-5.67-4.97Z"/>
      <path class="cls-1" d="M161.71,63.9V7.21s2.31-3.74,8.13-5.9C173.88-.19,178.24.01,178.24.01v77.49c-8.29,10.18-16.53,8.24-16.53,8.24l-72.59-42.63,18-9.05,54.59,29.83h0Z"/>
      <path class="cls-2" d="M156.77,27.35c-4.71,7.93-11.84,9.59-11.84,9.59L89.12,7.08,103.17.01l53.6,27.34h0Z"/>
      <g>
        <path class="cls-1" d="M16.72,139.46c12.91.71,21.65,1.06,26.23,1.06,1.08,0,1.94-.32,2.58-.95.64-.64.95-1.5.95-2.58v-6.36h-16.26c-4.95,0-8.54-1.12-10.78-3.36-2.24-2.24-3.36-5.83-3.36-10.78v-2.12c0-4.95,1.12-8.54,3.36-10.78s5.83-3.36,10.78-3.36h24.81v9.9h-21.99c-2.83,0-4.24,1.41-4.24,4.24v1.41c0,2.83,1.41,4.24,4.24,4.24h12.72c4.62,0,8.01,1.09,10.18,3.25,2.17,2.17,3.25,5.56,3.25,10.18v3.53c0,4.62-1.08,8.01-3.25,10.18s-5.56,3.25-10.18,3.25c-2.4,0-4.95-.05-7.63-.14l-6.5-.28c-4.81-.24-9.78-.57-14.92-.99v-9.54h0Z"/>
        <path class="cls-2" d="M110.1,136.28c0,4.95-1.12,8.54-3.36,10.78s-5.83,3.36-10.78,3.36h-17.67c-4.95,0-8.54-1.12-10.78-3.36s-3.36-5.83-3.36-10.78v-22.62c0-4.95,1.12-8.54,3.36-10.78s5.83-3.36,10.78-3.36h17.67c4.95,0,8.54,1.12,10.78,3.36s3.36,5.83,3.36,10.78v22.62ZM97.38,113.66c0-2.83-1.41-4.24-4.24-4.24h-12.02c-2.83,0-4.24,1.41-4.24,4.24v22.62c0,2.83,1.41,4.24,4.24,4.24h12.02c2.83,0,4.24-1.41,4.24-4.24,0,0,0-22.62,0-22.62Z"/>
        <path class="cls-1" d="M148.98,100.22h12.72v36.05c0,4.95-1.12,8.54-3.36,10.78s-5.83,3.36-10.78,3.36h-16.26c-4.95,0-8.54-1.12-10.78-3.36s-3.36-5.83-3.36-10.78v-36.05h12.73v36.05c0,2.83,1.41,4.24,4.24,4.24h10.6c2.83,0,4.24-1.41,4.24-4.24v-36.05h0Z"/>
      </g>
    </g>
  </g>
</svg>