<svg width="60" height="46" viewBox="0 0 60 46" fill="none" xmlns="http://www.w3.org/2000/svg">
<g clip-path="url(#clip0_27_647)">
<path d="M59.9282 39.6758C59.9102 39.558 59.8743 39.4583 59.8205 39.3587C59.6499 38.9419 59.3447 38.4617 58.8151 37.9452L52.8725 31.0412V5.0195C52.8725 2.247 50.6374 0 47.8995 0H12.2262C9.4614 0 7.12747 2.30136 7.12747 5.0195L7.16338 30.9868L1.17595 37.9362C0.655299 38.4526 0.341116 38.9328 0.17056 39.3496C0.1167 39.4402 0.0807931 39.5489 0.0628398 39.6667C-0.0538568 40.1016 -0.0179502 40.455 0.0538631 40.7177V41.4335C0.0538631 43.9433 2.08259 45.9909 4.56912 45.9909H55.4129C57.8995 45.9909 59.9282 43.9433 59.9282 41.4335V40.7177C60 40.455 60.0359 40.0926 59.9282 39.6667V39.6758ZM1.92101 42.2218C2.21724 42.2852 2.56733 42.3214 2.97128 42.3214L30 42.2671L57.0287 42.3214C57.4327 42.3214 57.7738 42.2852 58.07 42.2218C57.7379 43.3815 56.6697 44.2332 55.4129 44.2332H4.5781C3.32137 44.2332 2.25315 43.3815 1.92101 42.2218ZM2.4237 39.1865C2.4237 39.1865 2.45961 39.1503 2.47756 39.1322L2.66607 38.9147L8.60862 32.0106L29.991 32.0288C29.991 32.0288 48.4201 32.0197 51.3734 32.0106L57.316 38.9147L57.5045 39.1322C57.5045 39.1322 57.5404 39.1684 57.5584 39.1865C57.8007 39.4221 57.9623 39.6305 58.0611 39.7936C58.2316 40.0654 58.2406 40.2285 58.2316 40.2557C58.2137 40.301 57.9174 40.5547 57.0108 40.5547L37.2891 40.5184C37.1454 40.5728 36.9838 40.6 36.8133 40.6H23.1418C22.9803 40.6 22.8187 40.5728 22.6661 40.5184L2.95333 40.5547C2.03771 40.5547 1.75045 40.301 1.7325 40.2557C1.72352 40.2285 1.7325 40.0654 1.90306 39.7936C2.0018 39.6305 2.16338 39.4312 2.40575 39.1865H2.4237ZM47.8995 1.76679C49.6768 1.76679 51.1221 3.22553 51.1221 5.0195V30.1623H8.91383L8.87792 5.0195C8.87792 3.25271 10.4129 1.76679 12.2262 1.76679H47.8995Z" fill="#278162"/>
<path d="M12.1724 28.5405H47.8187C48.3034 28.5405 48.6894 28.1418 48.6894 27.6616V5.29134C48.6894 4.80208 48.2945 4.41248 47.8187 4.41248H12.1724C11.6876 4.41248 11.3016 4.81114 11.3016 5.29134V27.6616C11.3016 28.1509 11.6966 28.5405 12.1724 28.5405ZM13.0521 6.17021H46.9569V26.7737H13.0521V6.17021Z" fill="#278162"/>
<path d="M12.2711 33.0073H9.43443L8.73425 33.9315H11.6696L12.2711 33.0073Z" fill="#278162"/>
<path d="M16.508 33.0164L13.6804 33.0073L13.1328 33.9315H16.0682L16.508 33.0164Z" fill="#278162"/>
<path d="M20.754 33.0164H17.9263L17.5314 33.9405H20.4667L20.754 33.0164Z" fill="#278162"/>
<path d="M25 33.0164H22.1724L21.939 33.9405H24.8654L25 33.0164Z" fill="#278162"/>
<path d="M29.246 33.0164H26.4183L26.3375 33.9405L29.2639 33.9496L29.246 33.0164Z" fill="#278162"/>
<path d="M33.6625 33.9496L33.492 33.0164H30.6643L30.7361 33.9496H33.6625Z" fill="#278162"/>
<path d="M38.0701 33.9586L37.7379 33.0254H34.9103L35.1347 33.9496L38.0701 33.9586Z" fill="#278162"/>
<path d="M42.4686 33.9586L41.9839 33.0254H39.1562L39.5333 33.9586H42.4686Z" fill="#278162"/>
<path d="M46.8672 33.9586L46.2298 33.0254H43.3932L43.9318 33.9586H46.8672Z" fill="#278162"/>
<path d="M51.2657 33.9677L50.4758 33.0254H47.6392L48.3304 33.9586L51.2657 33.9677Z" fill="#278162"/>
<path d="M11.3106 34.3663H8.33032L7.61218 35.2814L10.7002 35.2905L11.3106 34.3663Z" fill="#278162"/>
<path d="M15.3321 35.2905L15.7899 34.3754L12.8097 34.3663L12.2441 35.2905H15.3321Z" fill="#278162"/>
<path d="M20.2603 34.3754H17.28L16.8761 35.2995H19.9641L20.2603 34.3754Z" fill="#278162"/>
<path d="M24.7307 34.3844L21.7504 34.3754L21.5081 35.2995L24.596 35.3086L24.7307 34.3844Z" fill="#278162"/>
<path d="M29.21 34.3845H26.2298L26.14 35.3087L29.228 35.3177L29.21 34.3845Z" fill="#278162"/>
<path d="M30.772 35.3177H33.86L33.6804 34.3936L30.7002 34.3845L30.772 35.3177Z" fill="#278162"/>
<path d="M35.4039 35.3268H38.4919L38.1508 34.3936H35.1705L35.4039 35.3268Z" fill="#278162"/>
<path d="M40.0359 35.3268L43.1239 35.3358L42.6302 34.4026L39.6499 34.3936L40.0359 35.3268Z" fill="#278162"/>
<path d="M44.6678 35.3358H47.7558L47.1005 34.4026H44.1202L44.6678 35.3358Z" fill="#278162"/>
<path d="M49.2999 35.3449H52.3878L51.5709 34.4116L48.5907 34.4026L49.2999 35.3449Z" fill="#278162"/>
<path d="M10.3412 35.7254L7.19934 35.7163L6.46326 36.6405L9.71281 36.6495L10.3412 35.7254Z" fill="#278162"/>
<path d="M11.3285 36.6496L14.578 36.6587L15.0448 35.7345L11.903 35.7255L11.3285 36.6496Z" fill="#278162"/>
<path d="M19.4524 36.6677L19.7487 35.7436L16.6158 35.7345L16.2029 36.6587L19.4524 36.6677Z" fill="#278162"/>
<path d="M23.8869 36.6315H24.3177L24.4524 35.7435H21.3106L21.0592 36.6677H23.5278C23.6445 36.6496 23.7612 36.6315 23.8779 36.6315H23.8869Z" fill="#278162"/>
<path d="M29.1651 35.7526H26.0323L25.9425 36.6314H29.1921L29.1651 35.7526Z" fill="#278162"/>
<path d="M30.8079 36.6314H34.0485L33.8779 35.7616L30.7361 35.7526L30.8079 36.6314Z" fill="#278162"/>
<path d="M35.6643 36.6315H36.1131C36.2657 36.6315 36.4094 36.6587 36.553 36.6949H38.9318L38.5907 35.7708H35.4489L35.6733 36.6315H35.6643Z" fill="#278162"/>
<path d="M40.5476 36.704L43.7971 36.713L43.2944 35.7798L40.1526 35.7708L40.5476 36.704Z" fill="#278162"/>
<path d="M44.8563 35.7798L45.4219 36.713L48.6714 36.7221L47.9982 35.7798H44.8563Z" fill="#278162"/>
<path d="M50.2962 36.722L53.5368 36.7311L52.7019 35.7888H49.5691L50.2962 36.722Z" fill="#278162"/>
<path d="M23.8868 38.4164L23.7522 38.8332H36.2477L36.1131 38.4164C36.1131 38.4164 36.0951 38.3983 36.0861 38.3983H23.9228C23.9228 38.3983 23.9048 38.4074 23.8958 38.4164H23.8868Z" fill="#278162"/>
<path d="M38.2586 14.678L31.93 9.79436C31.7864 9.67658 31.0503 9.12389 30.0808 9.08765C30.0539 9.08765 30.027 9.08765 30 9.08765C29.9641 9.08765 29.9462 9.08765 29.9193 9.08765C28.9408 9.12389 28.2047 9.67658 28.0701 9.79436L21.7415 14.678C21.544 14.832 21.4184 15.0676 21.4004 15.3212C21.3825 15.5749 21.4812 15.8286 21.6607 16.0008L22.7649 17.1152C22.9354 17.2874 23.1598 17.3689 23.3842 17.3689C23.3842 17.3689 23.3932 17.3689 23.4022 17.3689V22.18C23.4022 22.6693 23.7972 23.0589 24.2729 23.0589H35.7361C36.2209 23.0589 36.6069 22.6602 36.6069 22.18V17.3689C36.8403 17.3689 37.0647 17.2874 37.2352 17.1152L38.3394 16.0008C38.5189 15.8196 38.6087 15.5749 38.5997 15.3212C38.5817 15.0676 38.4561 14.832 38.2586 14.678ZM30.781 21.2649H29.2191V17.4142H30.781V21.2649ZM34.8564 21.3012H32.5315V16.5354C32.5315 16.0461 32.1365 15.6565 31.6607 15.6565H28.3483C27.8636 15.6565 27.4776 16.0551 27.4776 16.5354V21.3012H25.1526V16.5807L29.9911 12.9112C31.1491 13.781 33.8869 15.8468 34.8654 16.5807V21.3012H34.8564ZM30 10.8544C30.1078 10.8544 30.2155 10.8816 30.3142 10.9088C30.2155 10.8907 30.1078 10.8907 30.009 10.8816H29.9911C29.8833 10.8816 29.7756 10.8816 29.6769 10.9088C29.7756 10.8816 29.8833 10.8544 30 10.8544Z" fill="#278162"/>
</g>
<defs>
<clipPath id="clip0_27_647">
<rect width="60" height="46" fill="white"/>
</clipPath>
</defs>
</svg>
