<svg width="60" height="61" viewBox="0 0 60 61" fill="none" xmlns="http://www.w3.org/2000/svg">
<g clip-path="url(#clip0_28_1368)">
<path d="M58.8459 6.31568H14.791C14.7674 6.20904 14.7439 6.10239 14.6968 6.01945C14.0137 2.57131 10.9401 0.0118721 7.41904 0.0118721C3.33268 2.28668e-05 0 3.35336 0 7.46506C0 8.01012 0.0588813 8.55519 0.176644 9.08841V51.9235C0.0588813 52.4448 0 52.9899 0 53.535C0 57.303 2.79097 60.4194 6.3945 60.9289C6.52404 60.9763 6.65358 61 6.7949 61H58.8577C59.4936 61 60 60.4786 60 59.8506V7.46506C60 6.8252 59.4818 6.31568 58.8577 6.31568H58.8459ZM57.7036 49.8143H42.2179C41.5819 49.8143 41.0756 50.3357 41.0756 50.9637V58.6894H12.7772C13.6722 57.7415 14.3317 56.5684 14.6379 55.2531C14.7439 55.0754 14.8145 54.8621 14.8145 54.637V54.1156C14.8263 53.926 14.8381 53.7364 14.8381 53.535C14.8381 53.3335 14.8381 53.144 14.8145 52.9544V8.62628H57.7036V49.8262V49.8143ZM57.7036 52.1249V58.6894H43.3719V52.1249H57.7036ZM2.41413 54.637C2.3317 54.2815 2.29637 53.9142 2.29637 53.535C2.29637 53.0729 2.35525 52.6226 2.47301 52.196C2.90873 50.5845 4.09813 49.2811 5.64082 48.7005C6.00589 48.5701 6.3945 48.4753 6.78312 48.4161C6.98332 48.3924 7.19529 48.3806 7.40726 48.3806C7.58391 48.3806 7.76055 48.3806 7.92542 48.4042C10.3395 48.6531 12.2709 50.5964 12.5064 53.0373C12.5182 53.2032 12.5299 53.3691 12.5299 53.535C12.5299 53.9142 12.4828 54.2815 12.4122 54.637C12.3297 55.0398 12.1884 55.4309 12.0118 55.7863C11.2463 57.3504 9.72718 58.4761 7.92542 58.6539C7.74877 58.6657 7.58391 58.6776 7.40726 58.6776C7.19529 58.6776 6.98332 58.6657 6.78312 58.642C6.38273 58.5946 6.00589 58.4998 5.64082 58.3576C4.40432 57.8955 3.39156 56.9594 2.81452 55.7745C2.63788 55.4072 2.50834 55.028 2.41413 54.6251V54.637ZM7.41904 2.31063C9.80962 2.31063 11.8822 4.00507 12.4122 6.31568C12.4357 6.44602 12.4711 6.56451 12.4828 6.69486C12.4828 6.74225 12.5064 6.8015 12.5182 6.8489V6.93184C12.5182 6.93184 12.5182 7.00294 12.5182 7.02663C12.5299 7.19252 12.5417 7.33472 12.5417 7.46506C12.5417 7.60725 12.5417 7.74944 12.5182 7.90348C12.5182 7.93903 12.5182 7.97458 12.5182 7.99827V48.1199C11.3052 46.9586 9.70363 46.2121 7.93719 46.0936C7.76055 46.0818 7.59568 46.0699 7.41904 46.0699C7.20707 46.0699 6.99509 46.0699 6.7949 46.0936C6.40628 46.1292 6.01766 46.1884 5.6526 46.2832C4.45142 46.5795 3.36801 47.1719 2.48479 47.9777V8.95806C2.48479 8.86327 2.48479 8.78032 2.44946 8.68553C2.35525 8.28266 2.30815 7.87978 2.30815 7.46506C2.29637 4.62123 4.59274 2.31063 7.41904 2.31063Z" fill="#278162"/>
<path d="M17.9823 55.9641H23.1521C23.788 55.9641 24.2944 55.4427 24.2944 54.8147V53.0136H36.7183V51.9828V41.8753H39.8155V45.3472C39.8155 45.987 40.3336 46.4966 40.9578 46.4966H53.8175V44.1859H42.1119V41.8635H46.1747C46.8106 41.8635 47.317 41.3421 47.317 40.7141V31.5309L48.1177 31.3176C48.3179 31.2703 48.4946 31.1636 48.6359 31.0214L50.685 28.9715C50.9205 28.7345 51.0383 28.4146 51.0265 28.0828C51.0029 27.751 50.8381 27.4429 50.579 27.2415L38.8616 18.2361C38.685 18.0939 37.8724 17.4777 36.7183 17.1815V15.6174H46.8459V17.4185C46.8459 18.0583 47.3641 18.5678 47.9882 18.5678H53.158C53.7939 18.5678 54.3003 18.0465 54.3003 17.4185V12.2166C54.3003 11.5768 53.7821 11.0673 53.158 11.0673H47.9882C47.3523 11.0673 46.8459 11.5886 46.8459 12.2166V13.3068H24.2944V12.2166C24.2944 11.5768 23.7762 11.0673 23.1521 11.0673H17.9823C17.3464 11.0673 16.84 11.5886 16.84 12.2166V17.4185C16.84 18.0583 17.3582 18.5678 17.9823 18.5678H23.1521C23.788 18.5678 24.2944 18.0465 24.2944 17.4185V15.6174H34.422V17.1815C33.2679 17.4659 32.4553 18.0939 32.2787 18.2361L27.4386 21.9567H17.3582V24.2673H24.4357L20.5613 27.2534C20.3022 27.4548 20.1374 27.7629 20.1138 28.0946C20.0903 28.4264 20.2198 28.7582 20.4553 28.9833L22.5044 31.0333C22.6457 31.1755 22.8224 31.2821 23.0226 31.3295L23.8233 31.5428V40.726C23.8233 41.3658 24.3415 41.8753 24.9656 41.8753H34.422V43.3328H20.8675V36.6735H18.5711V44.4822C18.5711 45.122 19.0893 45.6316 19.7134 45.6316H34.4102V50.703H24.2826V49.6129C24.2826 48.973 23.7645 48.4635 23.1403 48.4635H17.9705C17.3346 48.4635 16.8282 48.9849 16.8282 49.6129V54.8147C16.8282 55.4546 17.3464 55.9641 17.9705 55.9641H17.9823ZM19.1364 50.7623H22.0098V53.6535H19.1364V50.7623ZM25.2718 29.5284L23.9175 29.1611L23.0108 28.2605L28.2277 24.2436H35.3287V21.933H31.2306L33.6918 20.0372C33.6918 20.0372 33.7154 20.0135 33.7272 20.0135C33.7272 20.0135 34.0098 19.7883 34.422 19.5987C34.7399 19.4565 35.1285 19.3262 35.5525 19.3262C35.5525 19.3262 35.5525 19.3262 35.5643 19.3262C35.9882 19.3262 36.3886 19.4565 36.6948 19.5987C37.1187 19.7883 37.3896 20.0135 37.3896 20.0135C37.3896 20.0135 37.4131 20.0372 37.4249 20.0372L48.106 28.2605L47.1992 29.1611L45.8449 29.5284C45.3385 29.6588 44.997 30.1209 44.997 30.6422V39.5529H42.0765V33.0358C42.0765 32.3959 41.5584 31.8864 40.9342 31.8864H35.7645V34.197H39.7919V39.5647H26.0844V30.6541C26.0844 30.1327 25.7311 29.6706 25.2365 29.5403L25.2718 29.5284ZM49.1541 13.366H52.0275V16.2572H49.1541V13.366ZM22.0098 15.6174V16.2691H19.1364V13.3779H22.0098V15.6292V15.6174Z" fill="#278162"/>
</g>
<defs>
<clipPath id="clip0_28_1368">
<rect width="60" height="61" fill="white"/>
</clipPath>
</defs>
</svg>
