<?xml version="1.0" encoding="UTF-8"?>
<svg id="Capa_2" data-name="Capa 2" xmlns="http://www.w3.org/2000/svg" viewBox="0 0 178.24 201.55">
  <defs>
    <style>
      .cls-1 {
        fill: #ea5b0c;
      }

      .cls-2 {
        fill: #298162;
      }
    </style>
  </defs>
  <g id="Capa_1-2" data-name="Capa 1">
    <path class="cls-2" d="M0,77.56V.01C3.39.01,6.18.32,9.58,2.1c4.36,2.28,6.5,5.11,6.5,5.11,0,0-.2,32.63-.2,56.22,4.16-2.23,55.44-32.95,55.44-32.95l-.21-10.23-30.65,17.22-14.83-10.12L74.23.01s4.45-.34,9.19,2.51c4.78,2.88,5.7,4.68,5.7,4.68v27.48s.38,4.68-.77,6.45c-1.49,2.3-3.17,2.98-3.17,2.98L16.08,85.93s-5.46-.31-10.41-3.4c-5.93-3.71-4.82-5.18-5.67-4.97Z"/>
    <path class="cls-2" d="M161.71,63.9V7.21s2.31-3.74,8.13-5.9C173.88-.19,178.24.01,178.24.01v77.49c-8.29,10.18-16.53,8.24-16.53,8.24l-72.59-42.63,18-9.05,54.59,29.83Z"/>
    <path class="cls-1" d="M156.77,27.35c-4.71,7.93-11.84,9.59-11.84,9.59L89.12,7.08,103.17.01l53.6,27.34Z"/>
    <g>
      <path class="cls-2" d="M16.72,139.46c12.91.71,21.65,1.06,26.23,1.06,1.08,0,1.94-.32,2.58-.95.64-.64.95-1.5.95-2.58v-6.36h-16.26c-4.95,0-8.54-1.12-10.78-3.36-2.24-2.24-3.36-5.83-3.36-10.78v-2.12c0-4.95,1.12-8.54,3.36-10.78s5.83-3.36,10.78-3.36h24.81v9.9h-21.99c-2.83,0-4.24,1.41-4.24,4.24v1.41c0,2.83,1.41,4.24,4.24,4.24h12.72c4.62,0,8.01,1.09,10.18,3.25,2.17,2.17,3.25,5.56,3.25,10.18v3.53c0,4.62-1.08,8.01-3.25,10.18-2.17,2.17-5.56,3.25-10.18,3.25-2.4,0-4.95-.05-7.63-.14l-6.5-.28c-4.81-.24-9.78-.57-14.92-.99v-9.54Z"/>
      <path class="cls-1" d="M110.1,136.28c0,4.95-1.12,8.54-3.36,10.78s-5.83,3.36-10.78,3.36h-17.67c-4.95,0-8.54-1.12-10.78-3.36-2.24-2.24-3.36-5.83-3.36-10.78v-22.62c0-4.95,1.12-8.54,3.36-10.78,2.24-2.24,5.83-3.36,10.78-3.36h17.67c4.95,0,8.54,1.12,10.78,3.36,2.24,2.24,3.36,5.83,3.36,10.78v22.62ZM97.38,113.66c0-2.83-1.41-4.24-4.24-4.24h-12.02c-2.83,0-4.24,1.41-4.24,4.24v22.62c0,2.83,1.41,4.24,4.24,4.24h12.02c2.83,0,4.24-1.41,4.24-4.24v-22.62Z"/>
      <path class="cls-2" d="M148.98,100.22h12.72v36.05c0,4.95-1.12,8.54-3.36,10.78s-5.83,3.36-10.78,3.36h-16.26c-4.95,0-8.54-1.12-10.78-3.36-2.24-2.24-3.36-5.83-3.36-10.78v-36.05h12.73v36.05c0,2.83,1.41,4.24,4.24,4.24h10.6c2.83,0,4.24-1.41,4.24-4.24v-36.05Z"/>
    </g>
    <g>
      <path class="cls-2" d="M16.13,173.14v-17.18h3.8v17.18h-3.8Z"/>
      <path class="cls-2" d="M25.66,173.14v-13.36h3.83v1.9c.08-.64.27-1.12.6-1.43.32-.31.76-.47,1.31-.47h1.92c1.04,0,1.93.37,2.68,1.12s1.12,1.64,1.12,2.68v9.55h-3.8v-9.55c0-.52-.19-.97-.56-1.34-.37-.37-.83-.56-1.36-.56s-.97.19-1.34.56-.56.82-.56,1.34v9.55h-3.83Z"/>
      <path class="cls-2" d="M52.39,159.78v15.26c0,1.04-.37,1.94-1.12,2.69s-1.64,1.13-2.68,1.13h-3.83c-2.25,0-3.52-1.28-3.83-3.83h1.92c.09,1.28.73,1.92,1.9,1.92h1.9c.53,0,.99-.19,1.36-.56.37-.37.56-.83.56-1.36v-3.8c-.15,1.27-.79,1.9-1.92,1.9h-1.9c-1.04,0-1.94-.37-2.69-1.12s-1.13-1.65-1.13-2.7v-5.73c0-1.04.38-1.93,1.13-2.68s1.65-1.12,2.69-1.12h7.63ZM48.59,161.68h-1.92c-.52,0-.97.19-1.34.56s-.56.82-.56,1.34v5.73c0,.52.19.97.56,1.35.37.38.82.57,1.34.57s.99-.19,1.36-.57c.37-.38.56-.83.56-1.35v-7.63Z"/>
      <path class="cls-2" d="M67.67,167.41h-7.63v1.9c0,.52.19.97.56,1.35.37.38.82.57,1.34.57h1.92c1.27,0,1.9-.64,1.9-1.92h1.9c-.29,2.55-1.56,3.83-3.8,3.83h-3.83c-1.04,0-1.94-.37-2.69-1.12s-1.13-1.65-1.13-2.7v-5.73c0-1.04.38-1.93,1.13-2.68s1.65-1.12,2.69-1.12h3.83c1.04,0,1.93.37,2.68,1.12s1.12,1.64,1.12,2.68v3.83ZM60.04,165.51h3.83v-1.92c0-.52-.19-.97-.56-1.34-.37-.37-.83-.56-1.36-.56s-.97.19-1.34.56-.56.82-.56,1.34v1.92Z"/>
      <path class="cls-2" d="M71.5,173.14v-13.36h3.83v1.9c.08-.64.27-1.12.6-1.43.32-.31.76-.47,1.31-.47h1.92c1.04,0,1.93.37,2.68,1.12s1.12,1.64,1.12,2.68v9.55h-3.8v-9.55c0-.52-.19-.97-.56-1.34-.37-.37-.83-.56-1.36-.56s-.97.19-1.34.56-.56.82-.56,1.34v9.55h-3.83Z"/>
      <path class="cls-2" d="M86.78,157.86v-1.9h3.83v1.9h-3.83ZM86.78,173.14v-13.36h3.83v13.36h-3.83Z"/>
      <path class="cls-2" d="M105.86,167.41h-7.63v1.9c0,.52.19.97.56,1.35.37.38.82.57,1.34.57h1.92c1.27,0,1.9-.64,1.9-1.92h1.9c-.29,2.55-1.56,3.83-3.8,3.83h-3.83c-1.04,0-1.94-.37-2.69-1.12s-1.13-1.65-1.13-2.7v-5.73c0-1.04.38-1.93,1.13-2.68s1.65-1.12,2.69-1.12h3.83c1.04,0,1.93.37,2.68,1.12s1.12,1.64,1.12,2.68v3.83ZM98.23,165.51h3.83v-1.92c0-.52-.19-.97-.56-1.34-.37-.37-.83-.56-1.36-.56s-.97.19-1.34.56-.56.82-.56,1.34v1.92Z"/>
      <path class="cls-2" d="M113.51,173.14h-3.83v-13.36h3.83v3.8c.15-1.27.55-2.22,1.18-2.85s1.52-.95,2.65-.95h1.9v3.8h-3.83c-.52,0-.97.19-1.34.56s-.56.83-.56,1.36v7.63Z"/>
      <path class="cls-2" d="M121.14,157.86l1.92-3.8h1.9l-1.9,3.8h-1.92ZM121.16,173.14v-13.36h3.8v13.36h-3.8Z"/>
      <path class="cls-2" d="M136.42,165.51v-1.92c0-.52-.19-.97-.56-1.34-.37-.37-.83-.56-1.36-.56h-1.9c-1.13,0-1.76.63-1.9,1.9h-1.92c.31-2.53,1.58-3.8,3.83-3.8h3.83c1.04,0,1.93.37,2.68,1.12s1.12,1.64,1.12,2.68v9.55h-3.8v-1.9c-.15,1.27-.79,1.9-1.92,1.9h-1.9c-1.04,0-1.94-.37-2.69-1.12s-1.13-1.65-1.13-2.7.38-1.93,1.13-2.68,1.65-1.12,2.69-1.12h3.83ZM136.42,167.41h-1.92c-.52,0-.97.19-1.34.56s-.56.82-.56,1.34.19.97.56,1.35c.37.38.82.57,1.34.57s.99-.19,1.36-.57c.37-.38.56-.83.56-1.35v-1.9Z"/>
      <path class="cls-2" d="M161.23,167.41h-7.63v1.9c0,.52.19.97.56,1.35.37.38.82.57,1.34.57h1.92c1.27,0,1.9-.64,1.9-1.92h1.9c-.29,2.55-1.56,3.83-3.8,3.83h-3.83c-1.04,0-1.94-.37-2.69-1.12s-1.13-1.65-1.13-2.7v-5.73c0-1.04.38-1.93,1.13-2.68s1.65-1.12,2.69-1.12h3.83c1.04,0,1.93.37,2.68,1.12s1.12,1.64,1.12,2.68v3.83ZM153.6,165.51h3.83v-1.92c0-.52-.19-.97-.56-1.34-.37-.37-.83-.56-1.36-.56s-.97.19-1.34.56-.56.82-.56,1.34v1.92Z"/>
    </g>
    <g>
      <path class="cls-2" d="M16.13,197.27v-19.23h4.26v19.23h-4.26Z"/>
      <path class="cls-2" d="M26.79,197.27v-14.95h4.28v2.13c.09-.72.31-1.25.67-1.6.36-.35.85-.53,1.46-.53h2.15c1.16,0,2.16.42,3,1.26.84.84,1.26,1.84,1.26,3v10.69h-4.26v-10.69c0-.58-.21-1.08-.63-1.5s-.93-.63-1.53-.63-1.08.21-1.5.63-.63.92-.63,1.5v10.69h-4.28Z"/>
      <path class="cls-2" d="M54.59,186.58h-2.13c-.19-1.42-.86-2.13-2.03-2.13-.75,0-1.32.15-1.69.45-.38.3-.56.74-.56,1.32,0,.61,1.03,1.48,3.1,2.59,1.69.91,2.67,1.66,2.92,2.26.26.6.38,1.24.38,1.92,0,1.18-.42,2.19-1.26,3.03-.84.84-1.85,1.26-3.03,1.26h-2.13c-2.85,0-4.28-1.43-4.28-4.28h2.15c.17,1.44.84,2.15,2,2.15.77,0,1.34-.15,1.72-.45.38-.3.56-.75.56-1.35s-1.03-1.45-3.1-2.56c-1.69-.91-2.67-1.66-2.94-2.26-.27-.6-.4-1.24-.4-1.92,0-1.18.42-2.19,1.27-3.03.85-.84,1.85-1.26,3.01-1.26h2.13c2.68,0,4.11,1.42,4.28,4.26Z"/>
      <path class="cls-2" d="M58.84,182.33h4.28v2.13c0-.72.18-1.25.54-1.6s.89-.53,1.59-.53h2.15c1.16,0,2.16.42,3,1.26.84.84,1.26,1.84,1.26,3v6.41c0,1.18-.42,2.19-1.26,3.03-.84.84-1.84,1.26-3,1.26h-4.28v4.28h-4.28v-19.23ZM63.12,195.14h2.13c.6,0,1.11-.21,1.53-.63s.63-.93.63-1.53v-6.41c0-.58-.21-1.08-.63-1.5s-.93-.63-1.53-.63-1.08.21-1.5.63-.63.92-.63,1.5v8.56Z"/>
      <path class="cls-2" d="M88.76,190.86h-8.54v2.13c0,.58.21,1.09.63,1.51s.92.64,1.5.64h2.15c1.42,0,2.13-.72,2.13-2.15h2.13c-.33,2.86-1.74,4.28-4.26,4.28h-4.28c-1.16,0-2.17-.42-3.01-1.26-.85-.84-1.27-1.85-1.27-3.03v-6.41c0-1.16.42-2.16,1.27-3,.85-.84,1.85-1.26,3.01-1.26h4.28c1.16,0,2.16.42,3,1.26.84.84,1.26,1.84,1.26,3v4.28ZM80.22,188.73h4.28v-2.15c0-.58-.21-1.08-.63-1.5s-.93-.63-1.53-.63-1.08.21-1.5.63-.63.92-.63,1.5v2.15Z"/>
      <path class="cls-2" d="M103.73,186.58h-2.13c-.17-1.42-.89-2.13-2.15-2.13-.58,0-1.08.21-1.5.63s-.63.92-.63,1.5v6.41c0,.58.21,1.09.63,1.51s.92.64,1.5.64c1.26,0,1.98-.72,2.15-2.15h2.13c-.17,2.86-1.6,4.28-4.28,4.28h-2.13c-1.16,0-2.17-.42-3.01-1.26-.85-.84-1.27-1.85-1.27-3.03v-6.41c0-1.16.42-2.16,1.27-3,.85-.84,1.85-1.26,3.01-1.26h2.13c2.7,0,4.13,1.42,4.28,4.26Z"/>
      <path class="cls-2" d="M118.68,186.58h-2.13c-.17-1.42-.89-2.13-2.15-2.13-.58,0-1.08.21-1.5.63s-.63.92-.63,1.5v6.41c0,.58.21,1.09.63,1.51s.92.64,1.5.64c1.26,0,1.98-.72,2.15-2.15h2.13c-.17,2.86-1.6,4.28-4.28,4.28h-2.13c-1.16,0-2.17-.42-3.01-1.26-.85-.84-1.27-1.85-1.27-3.03v-6.41c0-1.16.42-2.16,1.27-3,.85-.84,1.85-1.26,3.01-1.26h2.13c2.7,0,4.13,1.42,4.28,4.26Z"/>
      <path class="cls-2" d="M122.94,180.17v-2.13h4.28v2.13h-4.28ZM122.94,197.27v-14.95h4.28v14.95h-4.28Z"/>
      <path class="cls-2" d="M135.76,182.33h4.28c1.16,0,2.16.42,3,1.26.84.84,1.26,1.84,1.26,3v6.41c0,1.16-.42,2.17-1.26,3.01-.84.85-1.84,1.27-3,1.27h-4.28c-1.16,0-2.17-.42-3.01-1.26-.85-.84-1.27-1.85-1.27-3.03v-6.41c0-1.16.42-2.16,1.27-3,.85-.84,1.85-1.26,3.01-1.26ZM135.76,180.17l2.13-4.26h2.15l-2.15,4.26h-2.13ZM135.76,186.58v6.41c0,.58.21,1.09.63,1.51s.92.64,1.5.64,1.11-.21,1.53-.64.63-.93.63-1.51v-6.41c0-.58-.21-1.08-.63-1.5s-.93-.63-1.53-.63-1.08.21-1.5.63-.63.92-.63,1.5Z"/>
      <path class="cls-2" d="M148.57,197.27v-14.95h4.28v2.13c.09-.72.31-1.25.67-1.6.36-.35.85-.53,1.46-.53h2.15c1.16,0,2.16.42,3,1.26.84.84,1.26,1.84,1.26,3v10.69h-4.26v-10.69c0-.58-.21-1.08-.63-1.5s-.93-.63-1.53-.63-1.08.21-1.5.63-.63.92-.63,1.5v10.69h-4.28Z"/>
    </g>
  </g>
</svg>